<svg height="512pt" viewBox="0 0 512 512" width="512pt" xmlns="http://www.w3.org/2000/svg"><path d="m512 256c0 141.386719-114.613281 256-256 256s-256-114.613281-256-256 114.613281-256 256-256 256 114.613281 256 256zm0 0" fill="#2864f0"/><path d="m319.214844 504.128906c110.8125-28.148437 192.785156-128.5625 192.785156-248.128906 0-21.816406-2.738281-42.996094-7.871094-63.214844l-66.320312-5.589844-104.984375-104.980468-82.40625-10.058594-71.246094 10.058594 90.839844 90.839844-262.140625 19.730468zm0 0" fill="#27488f"/><path d="m28.132812 372.785156c42.449219 82.660156 128.554688 139.214844 227.867188 139.214844s185.417969-56.554688 227.867188-139.214844zm0 0" fill="#b56d3c"/><path d="m255.59375 372.785156v139.210938c.136719 0 .269531.003906.40625.003906 99.3125 0 185.417969-56.554688 227.867188-139.214844zm0 0" fill="#854d28"/><path d="m429.886719 238.621094c0 10.613281-8.605469 19.222656-19.222657 19.222656-10.613281 0-19.21875-8.605469-19.21875-19.222656 0-10.613282 19.21875-31.722656 19.21875-31.722656s19.222657 21.109374 19.222657 31.722656zm0 0" fill="#a3d4ff"/><path d="m352.554688 238.621094c0 10.613281-8.605469 19.222656-19.222657 19.222656-10.613281 0-19.21875-8.605469-19.21875-19.222656 0-10.613282 19.21875-31.722656 19.21875-31.722656s19.222657 21.109374 19.222657 31.722656zm0 0" fill="#a3d4ff"/><path d="m275.222656 238.621094c0 10.613281-8.605468 19.222656-19.222656 19.222656s-19.222656-8.605469-19.222656-19.222656c0-10.613282 19.222656-31.722656 19.222656-31.722656s19.222656 21.109374 19.222656 31.722656zm0 0" fill="#dbeeff"/><path d="m256 206.898438v50.941406c10.613281 0 19.222656-8.605469 19.222656-19.21875 0-10.617188-19.222656-31.722656-19.222656-31.722656zm0 0" fill="#a3d4ff"/><path d="m197.886719 238.621094c0 10.613281-8.605469 19.222656-19.222657 19.222656-10.613281 0-19.21875-8.605469-19.21875-19.222656 0-10.613282 19.21875-31.722656 19.21875-31.722656s19.222657 21.109374 19.222657 31.722656zm0 0" fill="#dbeeff"/><path d="m120.554688 238.621094c0 10.613281-8.605469 19.222656-19.222657 19.222656-10.613281 0-19.21875-8.605469-19.21875-19.222656 0-10.613282 19.21875-31.722656 19.21875-31.722656s19.222657 21.109374 19.222657 31.722656zm0 0" fill="#dbeeff"/><path d="m160.589844 385.664062h-22.289063c-32.476562 0-58.804687-26.324218-58.804687-58.804687v-22.285156h22.285156c32.480469 0 58.808594 26.328125 58.808594 58.804687zm0 0" fill="#d5ffab"/><path d="m156.898438 381.429688-15.757813-15.757813c-22.96875-22.96875-22.964844-60.203125.003906-83.167969l15.753907-15.757812 15.757812 15.761718c22.96875 22.964844 22.964844 60.203126-.003906 83.167969zm0 0" fill="#aaf471"/><path d="m160.589844 385.664062h22.285156c32.480469 0 58.808594-26.324218 58.808594-58.804687v-22.285156h-22.289063c-32.476562 0-58.804687 26.328125-58.804687 58.804687zm0 0" fill="#d5ffab"/><path d="m351.410156 385.664062h-22.285156c-32.480469 0-58.808594-26.324218-58.808594-58.804687v-22.285156h22.289063c32.476562 0 58.804687 26.328125 58.804687 58.804687zm0 0" fill="#aaf471"/><path d="m347.71875 381.429688-15.757812-15.757813c-22.964844-22.96875-22.964844-60.203125.003906-83.167969l15.757812-15.757812 15.757813 15.761718c22.964843 22.964844 22.964843 60.203126-.003907 83.167969zm0 0" fill="#77db56"/><path d="m351.410156 385.664062h22.289063c32.476562 0 58.804687-26.324218 58.804687-58.804687v-22.285156h-22.285156c-32.480469 0-58.808594 26.328125-58.808594 58.804687zm0 0" fill="#aaf471"/><path d="m231.75 134.792969-21.210938-21.214844c25.066407-25.066406 65.855469-25.066406 90.921876 0l-21.214844 21.214844c-13.367188-13.371094-35.125-13.371094-48.496094 0zm0 0" fill="#fff"/><path d="m255.59375 94.789062v29.984376c8.917969-.101563 17.867188 3.230468 24.652344 10.019531l21.214844-21.214844c-12.636719-12.636719-29.269532-18.894531-45.867188-18.789063zm0 0" fill="#e9edf5"/><path d="m200.386719 103.425781-21.214844-21.210937c42.363281-42.363282 111.292969-42.363282 153.652344 0l-21.210938 21.210937c-30.664062-30.664062-80.5625-30.664062-111.226562 0zm0 0" fill="#fff"/><path d="m255.59375 50.449219v29.988281c20.277344-.101562 40.585938 7.554688 56.019531 22.992188l21.210938-21.214844c-21.28125-21.285156-49.273438-31.871094-77.230469-31.765625zm0 0" fill="#e9edf5"/><path d="m7.871094 192.785156h496.253906c-4.058594-15.988281-9.632812-31.371094-16.542969-46h-463.164062c-6.910157 14.628906-12.484375 30.011719-16.546875 46zm0 0" fill="#bfe1ff"/><path d="m487.582031 146.785156h-231.988281v46h248.53125c-4.058594-15.988281-9.632812-31.371094-16.542969-46zm0 0" fill="#87c7ff"/></svg>